<svg width="800" height="800" viewBox="0 0 800 800" fill="none" xmlns="http://www.w3.org/2000/svg">
<rect width="800" height="800" fill="white"/>
<rect x="100" y="30" width="600" height="600" rx="20" fill="#0A192F"/>
<path d="M153.225 673.184L132.201 737.696V737.6C131.817 738.56 131.273 739.36 130.569 740C129.929 740.576 129.129 740.864 128.169 740.864C127.657 740.864 127.145 740.8 126.633 740.672C126.185 740.608 125.705 740.512 125.193 740.384H125.289C121.641 739.232 120.297 737.184 121.257 734.24L143.145 667.712C143.465 666.688 144.009 665.824 144.777 665.12C145.609 664.416 146.569 664 147.657 663.872C148.745 663.68 149.801 663.552 150.825 663.488C151.849 663.36 152.649 663.296 153.225 663.296C153.801 663.296 154.601 663.36 155.625 663.488C156.649 663.552 157.705 663.648 158.793 663.776C159.689 663.904 160.553 664.384 161.385 665.216C162.281 666.048 162.953 666.88 163.401 667.712C166.985 678.72 170.601 689.824 174.249 701.024C177.961 712.16 181.609 723.232 185.193 734.24C186.089 737.184 184.745 739.232 181.161 740.384C180.649 740.512 180.169 740.608 179.721 740.672C179.337 740.8 178.889 740.864 178.377 740.864C177.481 740.864 176.649 740.576 175.881 740C175.177 739.36 174.665 738.56 174.345 737.6V737.696L153.225 673.184ZM160.425 716.96C160.425 719.008 159.689 720.768 158.217 722.24C156.809 723.648 155.081 724.352 153.033 724.352C150.985 724.352 149.257 723.648 147.849 722.24C146.441 720.768 145.737 719.008 145.737 716.96C145.737 714.912 146.441 713.184 147.849 711.776C149.257 710.304 150.985 709.568 153.033 709.568C155.081 709.568 156.809 710.304 158.217 711.776C159.689 713.184 160.425 714.912 160.425 716.96ZM203.293 735.968C203.293 739.04 201.533 740.576 198.013 740.576C194.365 740.576 192.541 739.04 192.541 735.968V696.224C192.541 690.976 194.109 687.328 197.245 685.28C200.381 683.232 203.997 682.208 208.093 682.208H219.037C221.405 682.208 222.589 683.712 222.589 686.72C222.717 689.728 221.533 691.232 219.037 691.232H208.861C206.557 691.232 205.053 691.68 204.349 692.576C203.645 693.472 203.293 694.72 203.293 696.32V735.968ZM246.163 740C244.499 740 242.707 739.808 240.787 739.424C238.867 739.04 237.075 738.304 235.411 737.216C233.619 736.128 232.371 734.56 231.667 732.512C231.027 730.4 230.707 728 230.707 725.312V696.896C230.707 694.208 231.155 691.904 232.051 689.984C233.011 688.064 234.291 686.56 235.891 685.472C237.555 684.448 239.251 683.648 240.979 683.072C242.707 682.496 244.403 682.208 246.067 682.208H261.523C263.187 682.208 264.851 682.496 266.515 683.072C268.243 683.648 270.003 684.448 271.795 685.472C273.331 686.56 274.547 688.096 275.443 690.08C276.403 692 276.883 694.272 276.883 696.896V749.12C276.883 752.192 275.123 753.728 271.603 753.728C268.083 753.728 266.323 752.224 266.323 749.216V697.568C266.323 695.968 265.811 694.528 264.787 693.248C263.827 691.904 262.163 691.232 259.795 691.232H247.795C245.427 691.232 243.731 691.904 242.707 693.248C241.747 694.528 241.267 695.968 241.267 697.568V724.64C241.267 726.176 241.747 727.616 242.707 728.96C243.731 730.304 245.427 730.976 247.795 730.976H257.779C260.083 730.976 261.235 732.48 261.235 735.488C261.235 736.768 260.947 737.856 260.371 738.752C259.859 739.584 258.995 740 257.779 740H246.163ZM335.289 724.736C335.289 727.296 334.841 729.568 333.945 731.552C333.049 733.536 331.769 735.136 330.105 736.352H330.201C328.601 737.44 326.905 738.336 325.113 739.04C323.321 739.68 321.593 740 319.929 740H304.473C302.873 740 301.145 739.68 299.289 739.04C297.497 738.336 295.801 737.44 294.201 736.352H294.297C292.633 735.136 291.353 733.536 290.457 731.552C289.561 729.568 289.113 727.296 289.113 724.736V686.24C289.113 683.168 290.873 681.632 294.393 681.632C297.913 681.632 299.673 683.168 299.673 686.24V723.968C299.673 725.76 300.121 727.328 301.017 728.672C301.849 730.208 303.577 730.976 306.201 730.976H318.201C320.761 730.976 322.457 730.208 323.289 728.672L323.193 728.768C324.217 727.232 324.729 725.632 324.729 723.968V686.24C324.729 683.168 326.489 681.632 330.009 681.632C333.529 681.632 335.289 683.168 335.289 686.24V724.736ZM358.18 735.968C358.18 739.04 356.42 740.576 352.9 740.576C349.316 740.576 347.524 739.04 347.524 735.968V686.432C347.524 683.36 349.316 681.824 352.9 681.824C356.42 681.824 358.18 683.36 358.18 686.432V735.968ZM360.196 669.728C360.196 671.776 359.492 673.504 358.084 674.912C356.676 676.32 354.948 677.024 352.9 677.024C350.852 677.024 349.092 676.32 347.62 674.912C346.212 673.504 345.508 671.776 345.508 669.728C345.508 667.616 346.212 665.856 347.62 664.448C349.092 663.04 350.852 662.336 352.9 662.336C354.948 662.336 356.676 663.04 358.084 664.448C359.492 665.856 360.196 667.616 360.196 669.728ZM398.015 736.16C398.015 739.232 396.095 740.768 392.255 740.768C388.479 740.768 386.591 739.232 386.591 736.16V673.472H369.791C367.487 673.472 366.271 671.84 366.143 668.576C366.143 665.376 367.359 663.776 369.791 663.776H414.815C417.247 663.776 418.399 665.376 418.271 668.576C418.271 671.84 417.119 673.472 414.815 673.472H398.015V736.16ZM438.66 735.968C438.66 739.04 436.74 740.576 432.9 740.576C429.124 740.576 427.236 739.04 427.236 735.968V667.904C427.236 664.832 429.124 663.296 432.9 663.296C436.74 663.296 438.66 664.832 438.66 667.904V735.968ZM551.173 666.944L551.077 667.04C551.461 665.632 552.197 664.608 553.285 663.968C554.437 663.328 555.941 663.168 557.797 663.488C559.653 663.808 560.965 664.384 561.733 665.216C562.565 666.048 562.757 667.2 562.309 668.672L545.029 737.504V737.408C544.709 738.496 543.973 739.328 542.821 739.904C541.733 740.48 540.581 740.768 539.365 740.768C537.957 740.768 536.613 740.544 535.333 740.096C534.117 739.712 533.349 738.88 533.029 737.6L533.125 737.696L521.317 690.848H518.725L507.013 737.6C506.693 738.688 505.893 739.488 504.613 740C503.333 740.512 502.021 740.768 500.677 740.768C499.013 740.768 497.669 740.512 496.645 740C495.685 739.552 495.045 738.72 494.725 737.504L494.821 737.6L477.541 668.672C477.221 667.392 477.509 666.304 478.405 665.408C479.301 664.448 480.581 663.808 482.245 663.488C485.829 662.912 488.005 664.096 488.773 667.04L488.677 666.944L492.997 684.32C493.573 686.624 494.149 688.992 494.725 691.424C495.301 693.792 495.941 696.352 496.645 699.104C497.349 701.792 498.117 704.736 498.949 707.936C499.781 711.136 500.709 714.72 501.733 718.688L514.021 666.848C514.341 665.44 515.077 664.512 516.229 664.064C517.381 663.616 518.661 663.392 520.069 663.392C521.349 663.392 522.597 663.648 523.813 664.16C525.029 664.608 525.797 665.568 526.117 667.04L538.789 718.4L551.173 666.944ZM580.735 724.64C580.735 726.176 581.215 727.616 582.175 728.96C583.199 730.304 584.895 730.976 587.263 730.976H599.263C601.631 730.976 603.295 730.4 604.255 729.248C605.279 728.032 605.791 726.656 605.791 725.12V724.064C605.791 721.056 607.551 719.552 611.071 719.552C614.591 719.552 616.351 721.056 616.351 724.064V725.216C616.351 727.904 615.903 730.112 615.007 731.84C614.175 733.568 612.895 735.072 611.167 736.352C607.775 738.784 604.383 740 600.991 740H584.863C581.471 740 578.175 738.784 574.975 736.352C573.439 735.072 572.255 733.472 571.423 731.552C570.591 729.568 570.175 727.296 570.175 724.736V697.376C570.175 692.192 571.775 688.352 574.975 685.856C576.575 684.704 578.207 683.808 579.871 683.168C581.599 682.464 583.263 682.112 584.863 682.112H600.991C602.527 682.112 604.223 682.432 606.079 683.072C607.935 683.648 609.663 684.448 611.263 685.472C612.799 686.56 614.015 688.064 614.911 689.984C615.871 691.904 616.351 694.176 616.351 696.8V709.76C616.351 711.232 615.903 712.544 615.007 713.696C614.175 714.848 612.607 715.424 610.303 715.424H589.567C587.263 715.424 586.047 713.92 585.919 710.912C585.919 707.904 587.135 706.4 589.567 706.4H605.887L605.791 697.472C605.791 695.872 605.279 694.432 604.255 693.152C603.295 691.808 601.631 691.136 599.263 691.136H587.263C584.895 691.136 583.199 691.808 582.175 693.152C581.215 694.432 580.735 695.872 580.735 697.472V724.64ZM639.046 735.968C639.046 737.504 638.502 738.656 637.414 739.424C636.326 740.192 635.142 740.576 633.862 740.576C630.342 740.576 628.582 739.04 628.582 735.968V667.808C628.582 664.736 630.342 663.2 633.862 663.2C637.382 663.2 639.142 664.736 639.142 667.808V682.208H659.398C662.662 682.208 666.054 683.424 669.574 685.856C673.03 688.288 674.758 692.128 674.758 697.376V725.984C674.758 731.296 673.19 734.944 670.054 736.928C666.918 738.976 663.334 740 659.302 740H647.974C645.67 740 644.454 738.496 644.326 735.488C644.326 732.48 645.542 730.976 647.974 730.976H657.574C659.942 730.976 661.638 730.56 662.662 729.728C663.686 728.832 664.198 727.552 664.198 725.888V698.24C664.198 696.576 663.686 694.976 662.662 693.44L662.758 693.536C661.926 692 660.23 691.232 657.67 691.232H639.142L639.046 735.968Z" fill="black"/>
<path d="M287.48 331.968V320.704C299.597 315.584 311.416 310.507 322.936 305.472C334.541 300.437 346.402 295.317 358.52 290.112V301.504L300.536 326.336C302.498 327.189 304.759 328.171 307.319 329.28C309.965 330.389 313.421 331.883 317.688 333.76C321.954 335.637 327.33 337.984 333.816 340.8C340.386 343.616 348.621 347.115 358.52 351.296V362.688L287.48 331.968ZM390.393 390.464H379.641C384.846 370.24 389.881 350.357 394.745 330.816C399.694 311.189 404.729 291.307 409.849 271.168H420.601L390.393 390.464ZM441.48 362.688V351.296L499.72 326.464C495.112 324.501 490.333 322.496 485.384 320.448C480.52 318.315 475.613 316.181 470.664 314.048C465.714 311.915 460.765 309.781 455.816 307.648C450.866 305.515 446.088 303.467 441.48 301.504V290.112C447.624 292.757 453.64 295.36 459.528 297.92C465.416 300.48 471.261 303.04 477.064 305.6C482.866 308.075 488.712 310.592 494.6 313.152C500.488 315.627 506.461 318.144 512.52 320.704V331.968L441.48 362.688Z" fill="white"/>
</svg>
